<?xml version="1.0" encoding="utf-8"?>
<!-- Generator: Adobe Illustrator 18.1.1, SVG Export Plug-In . SVG Version: 6.00 Build 0)  -->
<svg version="1.1" id="Layer_2" xmlns="http://www.w3.org/2000/svg" xmlns:xlink="http://www.w3.org/1999/xlink" x="0px" y="0px"
	 viewBox="0 0 560 960" enable-background="new 0 0 560 960" xml:space="preserve">
<g>
	<path fill="#807DD1" d="M243.9,847.1c0,0-7.5,0-5.4,5.4c0,0-30.9,16.5-21.3,20.8s42.6-8.2,48-5c5.3,3.2,0-25.3,0-25.3h8.7
		l8.4-271.6l26.6,264.2l5.3,0.5c0,0,7.5,60.5,23.5,46.6c16-13.9,0-31.1,0-31.1l-7.2-17.1l5.6,1V527H220.9l17.7,309.2l7.5,0.2
		L243.9,847.1z"/>
	<path fill="#807DD1" d="M207.7,516.5c0.7,6,13.8,8.5,13.8,8.5h119.6c0,0,10.1-4.6,10.1-9.6c0-5.1-6.5-238.7-6.5-238.7
		s-26.7-12.8-42.6-28.7l-1.5-6.5l-1.3-19.8c0,0,5.9-1.7,10.9-25.6c0,0,13.4-8.8,3.3-19.3c0,0,1.7-25.9-0.8-30.5c0,0,8.8-8.8-4.2-8.8
		c0,0,4.2-13-12.5-8.8c0,0-5.4-15.1-13-2.9c0,0-13-15.9-18,2.5c0,0-16.7,1.7-12.1,11.7c0,0-9.6,1.7-4.2,15.5c0,0-7.5,3.3,0.4,9.6
		c0,0,2.1,9.6-1.7,13.4c0,0-8.4,10.9,6.3,16.3c0,0,0.8,18.8,8.4,24.7l0.8,21.7c0,0-1.3,2.5-5.4,6.3c-4.2,3.8-79.9,56-82.8,60.6
		c-2.9,4.6-5.9-49.8-5.9-49.8l-3.8,0.4c0,0-3.8-7.9,1.6-12.1c5.4-4.2,11.1-14.6,4.1-20.9v-43.7c0,0-2.1-6.5-3.4,3.1
		c-1.3,9.6-0.8,28-0.8,28s-3.7-7.1-5.8-1.7c0,0-6.2-5.4-6.2,0.8c0,0-4.2-5.4-5,2.1c0,0-7.1,4.6-5,13.4c0,0-4.5,9.2-0.4,20.9
		c0,0,3.6,4.6-1.7,10.5l-3.9,0.2l-3.2,0.2c0,0-7.3,103.4,8.6,107.3c15.9,3.8,20.6,4.7,64.5-17.4
		C208.8,349.5,207.1,510.5,207.7,516.5z"/>
	<path fill="#807DD1" d="M358.8,516.5c-0.7,6-13.8,8.5-13.8,8.5H225.4c0,0-10.1-4.6-10.1-9.6c0-5.1,6.5-238.7,6.5-238.7
		s26.7-12.8,42.6-28.7l1.5-6.5l1.3-19.8c0,0-5.9-1.7-10.9-25.6c0,0-13.4-8.8-3.3-19.3c0,0-1.7-25.9,0.8-30.5c0,0-8.8-8.8,4.2-8.8
		c0,0-4.2-13,12.5-8.8c0,0,5.4-15.1,13-2.9c0,0,13-15.9,18,2.5c0,0,16.7,1.7,12.1,11.7c0,0,9.6,1.7,4.2,15.5c0,0,7.5,3.3-0.4,9.6
		c0,0-2.1,9.6,1.7,13.4c0,0,8.4,10.9-6.3,16.3c0,0-0.8,18.8-8.4,24.7l-0.8,21.7c0,0,1.3,2.5,5.4,6.3s79.9,56,82.8,60.6
		s5.9-49.8,5.9-49.8l3.8,0.4c0,0,2.6-7.9-2.9-12.1c-5.4-4.2-12.4-14.6-5.4-20.9v-43.7c0,0,3.4-6.5,4.7,3.1s1.4,28,1.4,28
		s4-7.1,6.1-1.7c0,0,6.4-5.4,6.4,0.8c0,0,4.2-5.4,5.1,2.1c0,0,7.1,4.6,5.1,13.4c0,0,4.5,9.2,0.4,20.9c0,0-3.6,4.6,1.8,10.5l3.9,0.2
		l3.2,0.2c0,0,7.3,103.4-8.6,107.3c-15.9,3.8-20.6,4.7-64.5-17.4C357.8,349.5,359.5,510.5,358.8,516.5z"/>
	<g>
		<path fill="#807DD1" d="M260.6,347.2c-12.6,14.3-36.5,37.4-73.4,52.9C131.8,423.5,81.7,415,62.6,410.8c0,0-41.8,32.2-46.5,20.8
			c0.7-1.3,1.6-2.8,2.8-4.2c4.4-5.4,9.9-7.8,13.1-8.9c5.2-2.1,7.5-6.3,6.7-8.2c-0.8-1.9-5.1-3-9.9-1.2c3.8-3.9,9.5-8.8,17.3-13.1
			c8.9-4.9,17.1-7.1,22.8-8.2c10.1,1.6,22.4,2.5,36.2,1.3c33.5-2.7,58.7-15.8,72.8-24.8c6.5-5.3,20.8-15.7,42-19.4
			C238,341.9,252.8,345,260.6,347.2z"/>
	</g>
	<g>
		<path fill="#807DD1" d="M309.8,340.8c11.4,15.3,33.3,40.3,68.8,58.7c53.4,27.8,104,23.5,123.3,20.8c0,0,39.1,35.5,44.7,24.5
			c-0.6-1.4-1.4-2.9-2.4-4.4c-3.9-5.7-9.2-8.6-12.4-10c-5-2.5-7-6.9-6-8.8c1-1.8,5.3-2.5,9.9-0.4c-3.5-4.2-8.8-9.5-16.2-14.4
			c-8.4-5.6-16.4-8.5-22.1-10c-10.2,0.7-22.5,0.6-36.2-1.6c-33.2-5.4-57.2-20.6-70.5-30.7c-6-5.8-19.5-17.3-40.3-22.7
			C332.7,337.3,317.8,339.2,309.8,340.8z"/>
	</g>
	<g>
		<path fill="#807DD1" d="M399.4,524.2c0,0,5.2,11.1,8.7,11.1c0,0,7.5,8.6,4.8,16.9c-2.6,8.2-1.2,21.9,1.7,25.2s3.7-14.1,3.7-14.1
			s5.3,7.4,4.2,14.7s-8.3,8.4-8.3,8.4s-2.9,5.5,14-1.6s3.4-48.7,3.4-48.7l1.7-1.9l-2.3-8l3.1-4.6c0,0-12.1-58.1-39.2-109.3
			c0,0-38.1-104.1-37.3-94.2l-57.5-3L399.4,524.2z"/>
	</g>
	<g>
		<path fill="#807DD1" d="M153.4,527.7c0,0-5.2,11.1-8.7,11.1c0,0-7.5,8.6-4.8,16.9c2.6,8.2,1.2,21.9-1.7,25.2
			c-2.9,3.4-3.7-14.1-3.7-14.1s-5.3,7.4-4.2,14.7s8.3,8.4,8.3,8.4s2.9,5.5-14-1.6s-3.4-48.7-3.4-48.7l-1.7-1.9l2.3-8l-3.1-4.6
			c0,0,12.1-58.1,39.2-109.3c0,0,38.1-104.1,37.3-94.2l57.5-3L153.4,527.7z"/>
	</g>
</g>
</svg>
